<svg width="30" height="31" viewBox="0 0 30 31" fill="none" xmlns="http://www.w3.org/2000/svg">
<path d="M2.5 22.6037C2.02171 22.8798 1.85783 23.4914 2.13397 23.9697C2.41012 24.448 3.02171 24.6119 3.5 24.3358L2.5 22.6037ZM27.0108 10.4236C27.1538 9.89009 26.8372 9.34175 26.3037 9.19881L17.6104 6.86944C17.0769 6.7265 16.5286 7.04308 16.3857 7.57655C16.2427 8.11001 16.5593 8.65835 17.0928 8.80129L24.8202 10.8718L22.7496 18.5993C22.6067 19.1327 22.9233 19.6811 23.4567 19.824C23.9902 19.9669 24.5385 19.6504 24.6815 19.1169L27.0108 10.4236ZM3.5 24.3358L26.5449 11.0308L25.5449 9.29871L2.5 22.6037L3.5 24.3358Z" fill="#9E9C9C"/>
</svg>
