<svg width="31" height="30" viewBox="0 0 31 30" fill="none" xmlns="http://www.w3.org/2000/svg">
<path d="M3 22.4387C2.52171 22.7148 2.35783 23.3264 2.63397 23.8047C2.91012 24.283 3.52171 24.4469 4 24.1707L3 22.4387ZM27.5108 10.2585C27.6538 9.72505 27.3372 9.17671 26.8037 9.03377L18.1104 6.7044C17.5769 6.56146 17.0286 6.87804 16.8857 7.41151C16.7427 7.94497 17.0593 8.49331 17.5928 8.63625L25.3202 10.7068L23.2496 18.4342C23.1067 18.9677 23.4233 19.516 23.9567 19.659C24.4902 19.8019 25.0385 19.4853 25.1815 18.9519L27.5108 10.2585ZM4 24.1707L27.0449 10.8657L26.0449 9.13367L3 22.4387L4 24.1707Z" fill="#E79C2B"/>
</svg>
