<svg width="59" height="24" viewBox="0 0 59 24" fill="none" xmlns="http://www.w3.org/2000/svg">
<path d="M2 10.5C1.17157 10.5 0.5 11.1716 0.5 12C0.5 12.8284 1.17157 13.5 2 13.5V10.5ZM57.6697 13.0607C58.2555 12.4749 58.2555 11.5251 57.6697 10.9393L48.1237 1.3934C47.5379 0.807612 46.5882 0.807612 46.0024 1.3934C45.4166 1.97918 45.4166 2.92893 46.0024 3.51472L54.4877 12L46.0024 20.4853C45.4166 21.0711 45.4166 22.0208 46.0024 22.6066C46.5882 23.1924 47.5379 23.1924 48.1237 22.6066L57.6697 13.0607ZM2 13.5H56.609V10.5H2V13.5Z" fill="white"/>
</svg>
