<svg width="28" height="28" viewBox="0 0 28 28" fill="none" xmlns="http://www.w3.org/2000/svg">
<path d="M15.9899 18L15.9969 13.2671C15.9969 12.7146 15.8461 12.2831 15.5446 11.9726C15.2477 11.6575 14.8604 11.5 14.3826 11.5C14.1042 11.5 13.8398 11.5639 13.5893 11.6918C13.3389 11.8151 13.1348 12.0114 12.977 12.2808C12.8193 12.5457 12.7405 12.8858 12.7405 13.3014L12.0864 13.0411C12.0771 12.516 12.1861 12.0571 12.4134 11.6644C12.6454 11.2671 12.9608 10.9589 13.3597 10.7397C13.7587 10.5205 14.2086 10.411 14.7096 10.411C15.4936 10.411 16.1105 10.6461 16.5605 11.1164C17.0104 11.5822 17.2354 12.21 17.2354 13L17.2285 18H15.9899ZM7 18V10.6027H8.10634V12.5822H8.24551V18H7ZM11.5019 18L11.5089 13.3151C11.5089 12.7489 11.3604 12.3059 11.0635 11.9863C10.7667 11.6621 10.3724 11.5 9.88067 11.5C9.3936 11.5 8.9993 11.6644 8.69778 11.9932C8.39626 12.3219 8.24551 12.758 8.24551 13.3014L7.59144 12.9178C7.59144 12.4384 7.70741 12.0091 7.93935 11.6301C8.17129 11.2511 8.48672 10.9543 8.88565 10.7397C9.28459 10.5205 9.73686 10.411 10.2425 10.411C10.7481 10.411 11.1888 10.516 11.5645 10.726C11.9403 10.9361 12.2302 11.2374 12.4343 11.6301C12.6384 12.0183 12.7405 12.4817 12.7405 13.0205L12.7335 18H11.5019Z" fill="white"/>
<path d="M18.7695 14.3014L18.7764 13.5342L21.5179 11.1027C21.7406 10.9064 21.8913 10.7215 21.9702 10.5479C22.0537 10.3699 22.0954 10.1941 22.0954 10.0205C22.0954 9.67808 21.9841 9.39269 21.7615 9.16438C21.5388 8.93151 21.2558 8.81507 20.9126 8.81507C20.676 8.81507 20.4649 8.86986 20.2794 8.97945C20.0938 9.08904 19.9477 9.23516 19.841 9.41781C19.739 9.60046 19.6903 9.7968 19.6949 10.0068H18.7903C18.7903 9.60959 18.8808 9.26027 19.0617 8.9589C19.2472 8.65753 19.5001 8.42237 19.8201 8.25342C20.1448 8.08447 20.5136 8 20.9265 8C21.3208 8 21.6733 8.08904 21.9841 8.26712C22.2995 8.44064 22.5477 8.68037 22.7286 8.9863C22.9095 9.29224 23 9.63927 23 10.0274C23 10.3059 22.9629 10.5434 22.8887 10.7397C22.8144 10.9361 22.7008 11.1187 22.5477 11.2877C22.3993 11.4521 22.2137 11.6324 21.9911 11.8288L19.7506 13.8151L19.6183 13.4795H23V14.3014H18.7695Z" fill="white"/>
<path d="M1 7.34116L2.90244 5.43872L4.80488 7.34116" stroke="white" stroke-width="1.49933" stroke-linecap="round" stroke-linejoin="round"/>
<path d="M20.0243 23.1952L21.9268 25.0976L20.0243 27.0001" stroke="white" stroke-width="1.49933" stroke-linecap="round" stroke-linejoin="round"/>
<path d="M2.90234 5.43872V21.9265C2.90234 23.6777 4.32193 25.0973 6.07308 25.0973H21.9267" stroke="white" stroke-width="1.49933"/>
<path d="M26.3658 19.39L26.3658 4.1705C26.3658 2.41936 24.9463 0.999773 23.1951 0.999772L7.34145 0.999771" stroke="white" stroke-width="1.49933" stroke-linecap="round"/>
</svg>
