<svg width="30" height="30" viewBox="0 0 30 30" fill="none" xmlns="http://www.w3.org/2000/svg">
<path d="M16.8063 19.2939L16.8125 15.1003C16.8125 14.6108 16.6789 14.2284 16.4117 13.9533C16.1487 13.6741 15.8055 13.5345 15.3821 13.5345C15.1355 13.5345 14.9012 13.5912 14.6793 13.7045C14.4573 13.8137 14.2765 13.9877 14.1367 14.2264C13.997 14.4611 13.9271 14.7625 13.9271 15.1307L13.3476 14.9C13.3393 14.4348 13.4359 14.0282 13.6373 13.6802C13.8428 13.3282 14.1223 13.0551 14.4758 12.8609C14.8293 12.6667 15.228 12.5696 15.6719 12.5696C16.3665 12.5696 16.9132 12.778 17.3118 13.1947C17.7105 13.6074 17.9099 14.1637 17.9099 14.8636L17.9037 19.2939H16.8063ZM8.84072 19.2939V12.7395H9.821V14.4934H9.94431V19.2939H8.84072ZM12.8297 19.2939L12.8358 15.1428C12.8358 14.6411 12.7043 14.2487 12.4413 13.9654C12.1782 13.6782 11.8288 13.5345 11.3932 13.5345C10.9616 13.5345 10.6122 13.6802 10.3451 13.9715C10.0779 14.2628 9.94431 14.6492 9.94431 15.1307L9.36477 14.7908C9.36477 14.366 9.46753 13.9857 9.67304 13.6499C9.87855 13.314 10.158 13.0511 10.5115 12.8609C10.865 12.6667 11.2657 12.5696 11.7137 12.5696C12.1618 12.5696 12.5522 12.6627 12.8852 12.8488C13.2181 13.0349 13.475 13.3019 13.6558 13.6499C13.8367 13.9938 13.9271 14.4044 13.9271 14.8818L13.9209 19.2939H12.8297Z" fill="#434242"/>
<path d="M19.2691 16.0167L19.2753 15.337L21.7044 13.1826C21.9017 13.0086 22.0353 12.8447 22.1052 12.691C22.1791 12.5332 22.2161 12.3774 22.2161 12.2237C22.2161 11.9202 22.1175 11.6674 21.9202 11.4651C21.7229 11.2587 21.4722 11.1555 21.168 11.1555C20.9584 11.1555 20.7714 11.2041 20.607 11.3012C20.4426 11.3983 20.3131 11.5278 20.2186 11.6896C20.1282 11.8514 20.085 12.0254 20.0891 12.2115H19.2876C19.2876 11.8595 19.3678 11.55 19.5281 11.283C19.6925 11.016 19.9165 10.8076 20.2001 10.6579C20.4878 10.5082 20.8146 10.4333 21.1804 10.4333C21.5297 10.4333 21.8421 10.5122 22.1175 10.67C22.397 10.8238 22.6169 11.0362 22.7772 11.3073C22.9375 11.5783 23.0176 11.8858 23.0176 12.2297C23.0176 12.4765 22.9847 12.6869 22.919 12.8609C22.8532 13.0349 22.7525 13.1967 22.6169 13.3464C22.4854 13.4921 22.321 13.6519 22.1237 13.8259L20.1384 15.5858L20.0213 15.2885H23.0176V16.0167H19.2691Z" fill="#434242"/>
<path d="M3.52438 9.84973L5.21005 8.16406L6.89572 9.84973" stroke="#434242" stroke-width="1.32849" stroke-linecap="round" stroke-linejoin="round"/>
<path d="M20.381 23.8972L22.0667 25.5829L20.381 27.2686" stroke="#434242" stroke-width="1.32849" stroke-linecap="round" stroke-linejoin="round"/>
<path d="M5.20997 8.16406V22.7732C5.20997 24.3248 6.4678 25.5826 8.01942 25.5826H22.0667" stroke="#434242" stroke-width="1.32849"/>
<path d="M26 20.5254L26 7.04004C26 5.48842 24.7422 4.23059 23.1905 4.23059L9.14331 4.23059" stroke="#434242" stroke-width="1.32849" stroke-linecap="round"/>
</svg>
