<svg width="30" height="30" viewBox="0 0 30 30" fill="none" xmlns="http://www.w3.org/2000/svg">
<path fill-rule="evenodd" clip-rule="evenodd" d="M25.7074 5.59828C25.8505 5.57402 25.9863 5.67025 26.0109 5.81337L26.4778 8.5372H8.36777L25.7074 5.59828ZM1.30824 8.63251L1.29382 8.54747L25.5115 4.44277C26.292 4.31049 27.0322 4.83511 27.166 5.61535L29.431 18.8278C29.5623 19.5939 29.06 20.3253 28.2978 20.4777L27.4576 20.6458V24.0893C27.4576 24.5922 27.0499 25 26.5469 25H1.7143C1.21134 25 0.803619 24.5922 0.803619 24.0893V9.44788C0.803619 9.09083 1.00909 8.78178 1.30824 8.63251ZM27.4576 19.4506L28.068 19.3285C28.2078 19.3005 28.2999 19.1664 28.2758 19.0258L27.4576 14.2528V19.4506ZM1.97953 23.824V9.71311H26.2817V23.824H1.97953Z" fill="#434242"/>
<path fill-rule="evenodd" clip-rule="evenodd" d="M6.35363 12.1617C6.35363 11.8681 6.5916 11.6301 6.88516 11.6301H21.768C22.0615 11.6301 22.2995 11.8681 22.2995 12.1617C22.2995 12.9801 22.9944 13.6776 23.8941 13.6776C24.1877 13.6776 24.4257 13.9156 24.4257 14.2092V19.3275C24.4257 19.6211 24.1877 19.859 23.8941 19.859C22.9944 19.859 22.2995 20.5564 22.2995 21.3748C22.2995 21.6684 22.0615 21.9064 21.768 21.9064H6.88516C6.59161 21.9064 6.35364 21.6684 6.35363 21.3748C6.35361 20.5564 5.65879 19.8591 4.75907 19.859C4.46552 19.859 4.22755 19.6211 4.22755 19.3275V14.2092C4.22755 13.9156 4.46552 13.6776 4.75907 13.6776C5.65881 13.6776 6.35363 12.9801 6.35363 12.1617ZM7.36057 12.6932C7.14328 13.7046 6.31803 14.4855 5.29061 14.6888V18.8479C6.31796 19.0512 7.14317 19.8319 7.36053 20.8433H21.2926C21.51 19.8319 22.3352 19.0511 23.3626 18.8479V14.6888C22.3352 14.4855 21.5099 13.7047 21.2926 12.6932H7.36057Z" fill="#434242"/>
<path fill-rule="evenodd" clip-rule="evenodd" d="M14.3266 19.0128C15.5008 19.0128 16.4527 18.0609 16.4527 16.8867C16.4527 15.7125 15.5008 14.7606 14.3266 14.7606C13.1524 14.7606 12.2005 15.7125 12.2005 16.8867C12.2005 18.0609 13.1524 19.0128 14.3266 19.0128ZM14.3266 20.0759C16.0879 20.0759 17.5158 18.648 17.5158 16.8867C17.5158 15.1254 16.0879 13.6975 14.3266 13.6975C12.5653 13.6975 11.1374 15.1254 11.1374 16.8867C11.1374 18.648 12.5653 20.0759 14.3266 20.0759Z" fill="#434242"/>
<path fill-rule="evenodd" clip-rule="evenodd" d="M7.94844 16.5312C7.6539 16.5312 7.41514 16.77 7.41514 17.0645C7.41514 17.359 7.6539 17.5978 7.94844 17.5978C8.24297 17.5978 8.48174 17.359 8.48174 17.0645C8.48174 16.77 8.24297 16.5312 7.94844 16.5312ZM6.35562 17.0645C6.35562 16.1848 7.06875 15.4717 7.94844 15.4717C8.82813 15.4717 9.54125 16.1848 9.54125 17.0645C9.54125 17.9442 8.82813 18.6573 7.94844 18.6573C7.06875 18.6573 6.35562 17.9442 6.35562 17.0645Z" fill="#434242"/>
<path fill-rule="evenodd" clip-rule="evenodd" d="M20.705 16.5312C20.4105 16.5312 20.1717 16.77 20.1717 17.0645C20.1717 17.359 20.4105 17.5978 20.705 17.5978C20.9995 17.5978 21.2383 17.359 21.2383 17.0645C21.2383 16.77 20.9995 16.5312 20.705 16.5312ZM19.1122 17.0645C19.1122 16.1848 19.8253 15.4717 20.705 15.4717C21.5847 15.4717 22.2978 16.1848 22.2978 17.0645C22.2978 17.9442 21.5847 18.6573 20.705 18.6573C19.8253 18.6573 19.1122 17.9442 19.1122 17.0645Z" fill="#434242"/>
</svg>
