<svg width="30" height="31" viewBox="0 0 30 31" fill="none" xmlns="http://www.w3.org/2000/svg">
<mask id="path-1-inside-1_1_1216" fill="white">
<path fill-rule="evenodd" clip-rule="evenodd" d="M15.0359 27.767C17.7086 24.8947 22.5718 16.9791 22.5718 12.8171C22.5718 8.65518 19.1978 5.28125 15.0359 5.28125C10.8739 5.28125 7.5 8.65518 7.5 12.8171C7.5 16.9791 12.2891 25.0031 15.0359 27.767ZM15.0359 15.4802C16.7026 15.4802 18.0536 14.1291 18.0536 12.4625C18.0536 10.7958 16.7026 9.44476 15.0359 9.44476C13.3693 9.44476 12.0182 10.7958 12.0182 12.4625C12.0182 14.1291 13.3693 15.4802 15.0359 15.4802Z"/>
</mask>
<path d="M15.0359 27.767L14.2379 28.56L15.0626 29.3898L15.8595 28.5334L15.0359 27.767ZM21.4468 12.8171C21.4468 13.6668 21.1921 14.7991 20.7125 16.1214C20.2391 17.4268 19.5738 18.844 18.8171 20.2394C17.2958 23.0449 15.4639 25.6555 14.2123 27.0007L15.8595 28.5334C17.2805 27.0062 19.2166 24.2228 20.795 21.312C21.5883 19.8492 22.3058 18.3276 22.8277 16.8885C23.3435 15.4664 23.6968 14.0484 23.6968 12.8171H21.4468ZM15.0359 6.40625C18.5765 6.40625 21.4468 9.2765 21.4468 12.8171H23.6968C23.6968 8.03386 19.8192 4.15625 15.0359 4.15625V6.40625ZM8.625 12.8171C8.625 9.2765 11.4953 6.40625 15.0359 6.40625V4.15625C10.2526 4.15625 6.375 8.03386 6.375 12.8171H8.625ZM15.8339 26.974C14.5673 25.6996 12.7435 23.107 11.2292 20.2845C10.4779 18.8839 9.81918 17.4569 9.35096 16.1427C8.87676 14.8116 8.625 13.6703 8.625 12.8171H6.375C6.375 14.045 6.72188 15.4674 7.23145 16.8978C7.74703 18.3449 8.45729 19.877 9.24653 21.3482C10.8135 24.2691 12.7576 27.0705 14.2379 28.56L15.8339 26.974ZM16.9286 12.4625C16.9286 13.5078 16.0812 14.3552 15.0359 14.3552V16.6052C17.3239 16.6052 19.1786 14.7505 19.1786 12.4625H16.9286ZM15.0359 10.5698C16.0812 10.5698 16.9286 11.4172 16.9286 12.4625H19.1786C19.1786 10.1745 17.3239 8.31976 15.0359 8.31976V10.5698ZM13.1432 12.4625C13.1432 11.4172 13.9906 10.5698 15.0359 10.5698V8.31976C12.7479 8.31976 10.8932 10.1745 10.8932 12.4625H13.1432ZM15.0359 14.3552C13.9906 14.3552 13.1432 13.5078 13.1432 12.4625H10.8932C10.8932 14.7505 12.7479 16.6052 15.0359 16.6052V14.3552Z" fill="white" mask="url(#path-1-inside-1_1_1216)"/>
</svg>
