<svg width="30" height="30" viewBox="0 0 30 30" fill="none" xmlns="http://www.w3.org/2000/svg">
<path d="M1.21753 15.6526C0.665245 15.6526 0.217529 16.1003 0.217529 16.6526C0.217529 17.2049 0.665245 17.6526 1.21753 17.6526V15.6526ZM28.5346 17.3597C28.9251 16.9692 28.9251 16.336 28.5346 15.9455L22.1707 9.58152C21.7801 9.191 21.147 9.191 20.7564 9.58152C20.3659 9.97204 20.3659 10.6052 20.7564 10.9957L26.4133 16.6526L20.7564 22.3094C20.3659 22.7 20.3659 23.3331 20.7564 23.7237C21.147 24.1142 21.7801 24.1142 22.1707 23.7237L28.5346 17.3597ZM1.21753 17.6526H27.8275V15.6526H1.21753V17.6526Z" fill="#9E9C9C"/>
</svg>
