<svg width="45" height="45" viewBox="0 0 45 45" fill="none" xmlns="http://www.w3.org/2000/svg">
<g clip-path="url(#clip0_1_886)">
<path d="M18.6561 12.375C19.0291 12.375 19.3868 12.5232 19.6505 12.7869C19.9142 13.0506 20.0624 13.4083 20.0624 13.7812V25.5C20.0624 25.7486 20.1611 25.9871 20.337 26.1629C20.5128 26.3387 20.7512 26.4375 20.9999 26.4375C21.2485 26.4375 21.487 26.3387 21.6628 26.1629C21.8386 25.9871 21.9374 25.7486 21.9374 25.5V20.7506L22.0986 20.7431C22.693 20.7206 23.293 20.7281 23.6286 20.7937C23.8799 20.8444 24.1799 20.9738 24.4686 21.135C24.613 21.2137 24.7499 21.4106 24.7499 21.7238V25.5C24.7499 25.7486 24.8486 25.9871 25.0245 26.1629C25.2003 26.3387 25.4387 26.4375 25.6874 26.4375C25.936 26.4375 26.1745 26.3387 26.3503 26.1629C26.5261 25.9871 26.6249 25.7486 26.6249 25.5V22.5656C26.691 22.5587 26.7573 22.5524 26.8236 22.5469C27.4161 22.5019 27.9186 22.5281 28.1511 22.6219C28.3724 22.7081 28.7136 23.01 29.0624 23.4281C29.2142 23.6081 29.3436 23.7844 29.4374 23.9137V26.4375C29.4374 26.6861 29.5361 26.9246 29.712 27.1004C29.8878 27.2762 30.1262 27.375 30.3749 27.375C30.6235 27.375 30.862 27.2762 31.0378 27.1004C31.2136 26.9246 31.3124 26.6861 31.3124 26.4375V24.5625H31.9536C32.2157 24.5625 32.4748 24.6174 32.7143 24.7237C32.9538 24.83 33.1684 24.9854 33.3442 25.1797C33.52 25.374 33.6531 25.6031 33.7349 25.852C33.8167 26.1009 33.8454 26.3643 33.8192 26.625L33.3111 31.7156C33.2455 32.3698 33.043 33.0029 32.7167 33.5737L30.1011 38.1525C30.0192 38.296 29.9007 38.4153 29.7578 38.4982C29.6149 38.5812 29.4526 38.6249 29.2874 38.625H17.3155C17.1611 38.6249 17.0091 38.5867 16.873 38.5138C16.737 38.4408 16.621 38.3354 16.5355 38.2069L13.8486 34.1756C13.5991 33.8018 13.4429 33.3736 13.393 32.9269L12.7461 27.105C12.72 26.8717 12.7823 26.637 12.9209 26.4475C13.0594 26.2579 13.264 26.1272 13.4942 26.0813L15.3749 25.7062V27.375C15.3749 27.6236 15.4736 27.8621 15.6495 28.0379C15.8253 28.2137 16.0637 28.3125 16.3124 28.3125C16.561 28.3125 16.7995 28.2137 16.9753 28.0379C17.1511 27.8621 17.2499 27.6236 17.2499 27.375V13.7812C17.2499 13.4083 17.398 13.0506 17.6617 12.7869C17.9255 12.5232 18.2832 12.375 18.6561 12.375ZM21.9374 18.8737V13.7812C21.9374 12.911 21.5917 12.0764 20.9763 11.4611C20.361 10.8457 19.5264 10.5 18.6561 10.5C17.7859 10.5 16.9513 10.8457 16.3359 11.4611C15.7206 12.0764 15.3749 12.911 15.3749 13.7812V23.7938L13.1249 24.2437C12.4352 24.382 11.8224 24.7737 11.4073 25.3415C10.9921 25.9094 10.8049 26.6121 10.8824 27.3112L11.5292 33.135C11.6124 33.8795 11.8728 34.5931 12.2886 35.2162L14.9755 39.2475C15.2323 39.6327 15.5803 39.9486 15.9885 40.1671C16.3967 40.3856 16.8525 40.5 17.3155 40.5H29.2874C29.7831 40.4998 30.27 40.3686 30.6987 40.1197C31.1274 39.8708 31.4827 39.513 31.7286 39.0825L34.3442 34.5056C34.8015 33.7056 35.0852 32.8182 35.1767 31.9012L35.6849 26.8106C35.737 26.2893 35.6793 25.7629 35.5155 25.2652C35.3517 24.7676 35.0855 24.3097 34.734 23.9213C34.3824 23.5328 33.9534 23.2223 33.4745 23.0098C32.9956 22.7973 32.4775 22.6875 31.9536 22.6875H30.8642C30.7472 22.5288 30.6252 22.3737 30.4986 22.2225C30.1405 21.7931 29.5424 21.1575 28.8486 20.88C28.1661 20.6062 27.2624 20.6325 26.6774 20.6775L26.4299 20.7C26.2302 20.189 25.859 19.7634 25.3799 19.4963C24.9485 19.2475 24.482 19.0654 23.9961 18.9563C23.4149 18.84 22.6105 18.8475 22.0274 18.87L21.9374 18.8737Z" fill="#9E9C9C"/>
</g>
<path d="M6.92828 8.81797C6.82775 9.13373 7.00222 9.47119 7.31797 9.57172L12.4635 11.21C12.7792 11.3105 13.1167 11.136 13.2172 10.8203C13.3177 10.5045 13.1433 10.1671 12.8275 10.0665L8.25375 8.61031L9.70997 4.03653C9.81051 3.72078 9.63603 3.38331 9.32028 3.28278C9.00453 3.18225 8.66706 3.35672 8.56653 3.67248L6.92828 8.81797ZM39.182 9.57172C39.4978 9.47119 39.6723 9.13373 39.5717 8.81797L37.9335 3.67248C37.8329 3.35672 37.4955 3.18225 37.1797 3.28278C36.864 3.38331 36.6895 3.72078 36.79 4.03653L38.2463 8.61031L33.6725 10.0665C33.3567 10.1671 33.1823 10.5045 33.2828 10.8203C33.3833 11.136 33.7208 11.3105 34.0365 11.21L39.182 9.57172ZM7.77556 9.53298C9.72945 8.5228 15.4605 5.1 23.25 5.1V3.9C15.1237 3.9 9.13897 7.4772 7.22444 8.46702L7.77556 9.53298ZM23.25 5.1C31.0395 5.1 36.7705 8.5228 38.7244 9.53298L39.2756 8.46702C37.361 7.4772 31.3763 3.9 23.25 3.9V5.1Z" fill="#9E9C9C"/>
<defs>
<clipPath id="clip0_1_886">
<rect width="30" height="30" fill="white" transform="translate(6 10.5)"/>
</clipPath>
</defs>
</svg>
