<svg width="30" height="30" viewBox="0 0 30 30" fill="none" xmlns="http://www.w3.org/2000/svg">
<path d="M28.7825 14.3474C29.3348 14.3474 29.7825 13.8997 29.7825 13.3474C29.7825 12.7951 29.3348 12.3474 28.7825 12.3474L28.7825 14.3474ZM1.46539 12.6403C1.07486 13.0308 1.07486 13.664 1.46539 14.0545L7.82935 20.4185C8.21987 20.809 8.85304 20.809 9.24356 20.4185C9.63409 20.028 9.63409 19.3948 9.24356 19.0043L3.58671 13.3474L9.24356 7.69056C9.63409 7.30003 9.63409 6.66687 9.24356 6.27634C8.85304 5.88582 8.21987 5.88582 7.82935 6.27634L1.46539 12.6403ZM28.7825 12.3474L2.17249 12.3474L2.17249 14.3474L28.7825 14.3474L28.7825 12.3474Z" fill="#9E9C9C"/>
</svg>
