<svg width="46" height="45" viewBox="0 0 46 45" fill="none" xmlns="http://www.w3.org/2000/svg">
<path d="M23.4243 4.07574C23.19 3.84142 22.8101 3.84142 22.5757 4.07574L18.7574 7.89411C18.523 8.12843 18.523 8.50833 18.7574 8.74264C18.9917 8.97696 19.3716 8.97696 19.6059 8.74264L23 5.34853L26.3941 8.74264C26.6284 8.97696 27.0083 8.97696 27.2426 8.74264C27.477 8.50833 27.477 8.12843 27.2426 7.89411L23.4243 4.07574ZM23.6 24L23.6 4.5L22.4 4.5L22.4 24L23.6 24Z" fill="#9E9C9C"/>
<path d="M42.6409 35.8296C42.9609 35.7438 43.1509 35.4148 43.0651 35.0947L41.6675 29.8787C41.5817 29.5586 41.2527 29.3687 40.9327 29.4544C40.6126 29.5402 40.4226 29.8692 40.5084 30.1893L41.7507 34.8257L37.1143 36.0681C36.7942 36.1538 36.6043 36.4828 36.69 36.8029C36.7758 37.123 37.1048 37.3129 37.4249 37.2272L42.6409 35.8296ZM22.7 24.5196L42.1856 35.7696L42.7856 34.7304L23.3 23.4804L22.7 24.5196Z" fill="#9E9C9C"/>
<path d="M2.92047 35.0947C2.8347 35.4148 3.02465 35.7438 3.34473 35.8296L8.56073 37.2272C8.88081 37.3129 9.20981 37.123 9.29558 36.8029C9.38134 36.4828 9.1914 36.1538 8.87132 36.0681L4.23487 34.8257L5.4772 30.1893C5.56297 29.8692 5.37302 29.5402 5.05294 29.4544C4.73286 29.3687 4.40386 29.5586 4.31809 29.8787L2.92047 35.0947ZM22.6856 23.4804L3.20002 34.7304L3.80002 35.7696L23.2856 24.5196L22.6856 23.4804Z" fill="#9E9C9C"/>
<path fill-rule="evenodd" clip-rule="evenodd" d="M22.636 13.5937L11.335 21.3356C11.0746 21.5322 11.0046 21.7558 11 21.9593V33.5283C11 33.7826 11.1267 34.0192 11.335 34.152L22.636 41.8935C22.9084 42.0489 23.1855 42.0227 23.3694 41.8895L34.665 34.152C34.7673 34.0867 34.8519 33.9951 34.9105 33.8859C34.9692 33.7767 35 33.6536 35 33.5283V21.9593C34.9977 21.6509 34.8725 21.4882 34.6542 21.3279L23.364 13.5937C23.0951 13.4335 22.8841 13.5098 22.636 13.5937ZM23 15.0711L32.8593 21.8955L22.9938 28.841L13.0422 21.9589L23 15.0711ZM12.3969 23.2587L22.3014 30.1113V39.9708L12.3976 33.1182L12.3969 23.2587ZM33.6031 23.2587V33.1178L23.6986 39.9704V30.1105L33.6031 23.2587Z" fill="#9E9C9C"/>
</svg>
