<svg width="24" height="25" viewBox="0 0 24 25" fill="none" xmlns="http://www.w3.org/2000/svg">
<path fill-rule="evenodd" clip-rule="evenodd" d="M23.405 17.7418C22.861 16.6462 22.1442 15.6454 21.282 14.7778C20.9936 14.4519 20.6917 14.1383 20.377 13.8378L20.339 13.8008C20.2222 13.6873 20.1068 13.5723 19.993 13.4558C21.1716 11.8168 22.1801 10.0621 23.003 8.21876L23.036 8.14476L23.059 8.06676C23.168 7.70376 23.292 7.01376 22.852 6.38976C22.396 5.74576 21.667 5.62976 21.178 5.62976H18.931C18.4605 5.60832 17.9953 5.73625 17.6019 5.99526C17.2086 6.25427 16.9072 6.63108 16.741 7.07176C16.2574 8.2234 15.652 9.31997 14.935 10.3428V7.70976C14.935 7.36976 14.903 6.79976 14.538 6.31976C14.102 5.74376 13.471 5.62976 13.033 5.62976H9.467C9.00167 5.61905 8.55005 5.78772 8.20567 6.10083C7.86128 6.41394 7.65051 6.84752 7.617 7.31176L7.614 7.35676V7.40176C7.614 7.88676 7.806 8.24476 7.96 8.46976C8.029 8.57076 8.102 8.66276 8.149 8.72076L8.159 8.73376C8.209 8.79576 8.242 8.83676 8.275 8.88276C8.363 9.00076 8.488 9.18476 8.524 9.65876V11.1318C7.80818 9.93308 7.22124 8.662 6.773 7.33976L6.765 7.31776L6.757 7.29676C6.635 6.97776 6.44 6.51376 6.049 6.15976C5.593 5.74476 5.053 5.62976 4.562 5.62976H2.282C1.785 5.62976 1.186 5.74576 0.739 6.21676C0.3 6.68076 0.25 7.23676 0.25 7.53076V7.66476L0.278 7.79476C0.909301 10.7255 2.21024 13.4705 4.079 15.8148C4.93338 17.1621 6.09329 18.289 7.46465 19.1042C8.83601 19.9194 10.3802 20.3999 11.972 20.5068L12.013 20.5098H12.055C12.781 20.5098 13.538 20.4468 14.107 20.0678C14.874 19.5558 14.935 18.7708 14.935 18.3788V17.2408C15.132 17.4008 15.376 17.6148 15.675 17.9028C16.037 18.2648 16.325 18.5788 16.572 18.8528L16.704 18.9988C16.896 19.2128 17.085 19.4238 17.257 19.5968C17.473 19.8138 17.74 20.0528 18.074 20.2298C18.437 20.4208 18.818 20.5078 19.222 20.5078H21.503C21.984 20.5078 22.673 20.3938 23.158 19.8318C23.686 19.2198 23.646 18.4688 23.48 17.9298L23.45 17.8328L23.405 17.7418ZM17.685 17.8478C17.3751 17.5013 17.056 17.1632 16.728 16.8338L16.725 16.8308C15.368 15.5228 14.735 15.2958 14.287 15.2958C14.048 15.2958 13.785 15.3218 13.614 15.5358C13.537 15.6378 13.4865 15.7574 13.467 15.8838C13.4429 16.0305 13.4322 16.1791 13.435 16.3278V18.3788C13.435 18.6338 13.393 18.7408 13.275 18.8188C13.118 18.9238 12.783 19.0088 12.064 19.0088C10.6982 18.9158 9.37398 18.5001 8.20018 17.7956C7.02637 17.0912 6.03652 16.1183 5.312 14.9568L5.304 14.9438L5.294 14.9318C3.55312 12.7649 2.33984 10.223 1.75 7.50676C1.754 7.37676 1.782 7.29776 1.828 7.24976C1.875 7.19976 1.99 7.12976 2.282 7.12976H4.562C4.815 7.12976 4.947 7.18576 5.042 7.27076C5.148 7.36876 5.242 7.53376 5.354 7.82776C5.914 9.47376 6.67 11.0138 7.387 12.1448C7.745 12.7108 8.097 13.1818 8.415 13.5148C8.574 13.6808 8.729 13.8188 8.878 13.9168C9.021 14.0108 9.184 14.0858 9.352 14.0858C9.44 14.0858 9.543 14.0758 9.642 14.0328C9.74892 13.9855 9.83693 13.9039 9.892 13.8008C9.995 13.6128 10.024 13.3358 10.024 12.9728V9.59976C9.971 8.78176 9.724 8.32076 9.484 7.99376C9.4354 7.92835 9.38538 7.864 9.334 7.80076L9.321 7.78476C9.27836 7.73296 9.23766 7.67959 9.199 7.62476C9.14977 7.5636 9.12015 7.48902 9.114 7.41076C9.12185 7.33129 9.15976 7.25783 9.21999 7.20541C9.28022 7.15299 9.35821 7.12556 9.438 7.12876H13.033C13.239 7.12876 13.308 7.17876 13.343 7.22576C13.393 7.29076 13.435 7.42576 13.435 7.70976V12.2378C13.435 12.7758 13.683 13.1398 14.043 13.1398C14.457 13.1398 14.756 12.8888 15.278 12.3668L15.287 12.3568L15.295 12.3478C16.466 10.92 17.4227 9.32933 18.135 7.62576L18.139 7.61376C18.1925 7.46324 18.2938 7.33437 18.4274 7.2468C18.561 7.15923 18.7196 7.11778 18.879 7.12876H21.179C21.491 7.12876 21.593 7.20876 21.627 7.25576C21.662 7.30576 21.687 7.41276 21.627 7.62276C20.8056 9.45911 19.7901 11.2024 18.598 12.8228L18.59 12.8348C18.475 13.0118 18.348 13.2078 18.33 13.4318C18.31 13.6738 18.414 13.8928 18.597 14.1288C18.73 14.3248 19.005 14.5938 19.284 14.8668L19.31 14.8928C19.602 15.1788 19.919 15.4888 20.173 15.7888L20.18 15.7958L20.187 15.8038C20.9444 16.5592 21.5743 17.4326 22.052 18.3898C22.128 18.6498 22.082 18.7838 22.022 18.8528C21.953 18.9328 21.798 19.0078 21.504 19.0078H19.222C19.0665 19.0115 18.9126 18.9754 18.775 18.9028C18.6064 18.8047 18.4534 18.682 18.321 18.5388C18.178 18.3958 18.023 18.2228 17.833 18.0118L17.686 17.8478H17.685Z" fill="#F2F2F2"/>
</svg>
