<svg width="24" height="25" viewBox="0 0 24 25" fill="none" xmlns="http://www.w3.org/2000/svg">
<path d="M6.9 21.477C8.4 22.377 10.2 22.877 12 22.877C17.5 22.877 22 18.377 22 12.877C22 7.37695 17.5 2.87695 12 2.87695C6.5 2.87695 2 7.37695 2 12.877C2 14.677 2.5 16.377 3.3 17.877L2.44 21.183C2.39563 21.3536 2.39718 21.533 2.4445 21.7029C2.49181 21.8727 2.58321 22.0271 2.70941 22.1502C2.83562 22.2734 2.99215 22.361 3.16313 22.4042C3.33411 22.4473 3.51347 22.4445 3.683 22.396L6.9 21.477Z" stroke="#F2F2F2" stroke-width="1.5" stroke-miterlimit="10" stroke-linecap="round" stroke-linejoin="round"/>
<path d="M16.5 15.725C16.5 15.887 16.464 16.054 16.387 16.216C16.3084 16.3833 16.2053 16.5381 16.081 16.675C15.86 16.918 15.617 17.093 15.341 17.206C15.071 17.319 14.778 17.377 14.463 17.377C14.003 17.377 13.512 17.269 12.993 17.049C12.4443 16.8111 11.9243 16.5118 11.443 16.157C10.9195 15.7745 10.4254 15.3534 9.965 14.897C9.50946 14.4391 9.08926 13.9473 8.708 13.426C8.35762 12.9488 8.06115 12.4343 7.824 11.892C7.608 11.377 7.5 10.887 7.5 10.42C7.5 10.114 7.554 9.82195 7.662 9.55195C7.77 9.27695 7.942 9.02495 8.181 8.79995C8.469 8.51595 8.784 8.37695 9.118 8.37695C9.244 8.37695 9.37 8.40395 9.483 8.45795C9.6 8.51195 9.703 8.59295 9.785 8.70995L10.831 10.182C10.911 10.294 10.971 10.398 11.011 10.497C11.051 10.591 11.074 10.686 11.074 10.771C11.0727 10.8844 11.0398 10.9952 10.979 11.091C10.9096 11.208 10.8248 11.3153 10.727 11.41L10.384 11.766C10.3601 11.7893 10.3414 11.8174 10.329 11.8484C10.3166 11.8794 10.3108 11.9126 10.312 11.946C10.312 11.981 10.317 12.013 10.326 12.049C10.339 12.085 10.353 12.112 10.362 12.139C10.442 12.288 10.582 12.481 10.781 12.715C10.984 12.949 11.2 13.188 11.434 13.426C11.678 13.665 11.912 13.885 12.151 14.088C12.385 14.285 12.579 14.42 12.732 14.501L12.814 14.538C12.8499 14.5508 12.8879 14.5569 12.926 14.556C12.9605 14.5567 12.9948 14.5502 13.0266 14.537C13.0585 14.5237 13.0872 14.504 13.111 14.479L13.453 14.141C13.566 14.029 13.674 13.944 13.778 13.889C13.8736 13.828 13.9846 13.7954 14.098 13.795C14.1927 13.7964 14.2861 13.8164 14.373 13.854C14.472 13.894 14.576 13.952 14.688 14.029L16.18 15.087C16.2881 15.1573 16.3741 15.2568 16.428 15.374C16.4747 15.4851 16.4992 15.6044 16.5 15.725Z" stroke="#F2F2F2" stroke-width="1.5" stroke-miterlimit="10"/>
</svg>
